<svg width="21" height="21" viewBox="0 0 21 21" fill="none" xmlns="http://www.w3.org/2000/svg">
<path d="M20.707 19.293L16.168 14.754C17.5148 13.0464 18.1584 10.8888 17.9669 8.72241C17.7755 6.55604 16.7635 4.5447 15.138 3.09984C13.5125 1.65499 11.3964 0.885838 9.22255 0.949729C7.04868 1.01362 4.98137 1.90573 3.44355 3.44355C1.90573 4.98137 1.01362 7.04868 0.949729 9.22255C0.885838 11.3964 1.65499 13.5125 3.09984 15.138C4.5447 16.7635 6.55604 17.7755 8.72241 17.9669C10.8888 18.1584 13.0464 17.5148 14.754 16.168L19.293 20.707L20.707 19.293ZM9.49995 16C8.21438 16 6.95767 15.6187 5.88875 14.9045C4.81983 14.1903 3.98671 13.1751 3.49474 11.9874C3.00277 10.7997 2.87405 9.49274 3.12485 8.23187C3.37565 6.97099 3.99472 5.8128 4.90376 4.90376C5.8128 3.99472 6.97099 3.37565 8.23187 3.12485C9.49274 2.87405 10.7997 3.00277 11.9874 3.49474C13.1751 3.98671 14.1903 4.81983 14.9045 5.88875C15.6187 6.95767 16 8.21438 16 9.49995C15.9978 11.2232 15.3123 12.8753 14.0938 14.0938C12.8753 15.3123 11.2232 15.9978 9.49995 16Z" fill="#E9E9EB"/>
</svg>
